<?xml version="1.0" encoding="UTF-8" standalone="no"?>
<svg
   xmlns:dc="http://purl.org/dc/elements/1.1/"
   xmlns:cc="http://creativecommons.org/ns#"
   xmlns:rdf="http://www.w3.org/1999/02/22-rdf-syntax-ns#"
   xmlns:svg="http://www.w3.org/2000/svg"
   xmlns="http://www.w3.org/2000/svg"
   width="100"
   height="100"
   viewBox="0 0 80 80"
   version="1.1"
   id="svg889">
  <metadata
     id="metadata895">
    <rdf:RDF>
      <cc:Work
         rdf:about="">
        <dc:format>image/svg+xml</dc:format>
        <dc:type
           rdf:resource="http://purl.org/dc/dcmitype/StillImage" />
        <dc:title></dc:title>
      </cc:Work>
    </rdf:RDF>
  </metadata>
  <defs
     id="defs893" />
  <g
     fill="none"
     fill-rule="evenodd"
     id="g887"
     transform="translate(-0.06878762,-0.27515047)">
    <g
       fill="#000000"
       id="g885" />
  </g>
  <path
     style="fill:none;fill-opacity:1;stroke:#000000;stroke-width:0.355587;stroke-miterlimit:4;stroke-dasharray:none;stroke-opacity:1"
     id="path1221"
     d="M 15.810076,21.053259 A 6.7350545,5.3482456 0 0 1 8.8846461,23.884411 6.7350545,5.3482456 0 0 1 3.2267629,19.63316 6.7350545,5.3482456 0 0 1 6.4041542,13.985786 6.7350545,5.3482456 0 0 1 14.166886,14.495961"
     transform="rotate(-17.512995)" />
  <path
     id="path1235"
     style="fill:none;fill-opacity:1;stroke:#000000;stroke-width:0.328819;stroke-miterlimit:4;stroke-dasharray:none;stroke-opacity:1"
     transform="rotate(-17.512995)"
     d="m 19.240581,19.21512 c -0.884118,1.548307 -2.762026,2.209235 -4.411245,1.552532 C 14.417031,20.603476 14.050215,20.36937 13.73826,20.083395 13.426304,19.79742 13.16921,19.459574 12.976347,19.08792 12.783485,18.716266 12.654856,18.310802 12.599832,17.88959 m 1.390445,-3.347151 c 0.674374,-0.492069 1.575276,-0.783244 2.458741,-0.706787 1.766931,0.152915 3.155123,1.587898 3.260891,3.370806" />
  <ellipse
     style="fill:none;fill-opacity:1;stroke:#000000;stroke-width:0.355587;stroke-miterlimit:4;stroke-dasharray:none;stroke-opacity:1"
     id="path1239"
     cx="19.302197"
     cy="18.221531"
     rx="0.14981158"
     ry="0.4884133"
     transform="rotate(-17.512995)" />
  <ellipse
     style="fill:none;fill-opacity:1;stroke:#000000;stroke-width:0.355587;stroke-miterlimit:4;stroke-dasharray:none;stroke-opacity:1"
     id="path1239-2"
     cx="20.207092"
     cy="18.223345"
     rx="0.14981158"
     ry="0.4884133"
     transform="rotate(-17.512995)" />
  <ellipse
     style="fill:none;fill-opacity:1;stroke:#000000;stroke-width:0.355587;stroke-miterlimit:4;stroke-dasharray:none;stroke-opacity:1"
     id="path1271"
     cx="19.552633"
     cy="18.222261"
     rx="1.2742907"
     ry="1.0870594"
     transform="rotate(-17.512995)" />
  <path
     style="fill:none;stroke:#000000;stroke-width:0.284469;stroke-linecap:butt;stroke-linejoin:miter;stroke-miterlimit:4;stroke-dasharray:none;stroke-opacity:1"
     d="m 21.419759,12.563859 c 0,0 0.1833,1.015359 1.593321,0.774219"
     id="path1273" />
  <ellipse
     style="fill:#000000;fill-opacity:1;stroke:#000000;stroke-width:0.284469;stroke-miterlimit:4;stroke-dasharray:none;stroke-opacity:1"
     id="path1275"
     cx="17.44552"
     cy="16.034399"
     rx="0.31467995"
     ry="0.32670364"
     transform="rotate(-17.512995)" />
  <path
     style="fill:none;stroke:#000000;stroke-width:0.284469;stroke-linecap:butt;stroke-linejoin:miter;stroke-miterlimit:4;stroke-dasharray:none;stroke-opacity:1"
     d="m 21.004095,12.622252 c 0,0 0.464437,0.173093 0.865066,-0.244521"
     id="path1285" />
  <path
     style="fill:none;stroke:#000000;stroke-width:0.355587;stroke-linecap:butt;stroke-linejoin:miter;stroke-miterlimit:4;stroke-dasharray:none;stroke-opacity:1"
     d="m 20.696772,9.8322246 c 0,0 0.07274,-0.6807785 0.898175,-0.5627931"
     id="path1307" />
  <path
     style="fill:none;stroke:#000000;stroke-width:0.284469;stroke-linecap:round;stroke-linejoin:miter;stroke-miterlimit:4;stroke-dasharray:none;stroke-opacity:1"
     d="m 8.6623699,13.620933 c 0,0 -1.8036207,0.340114 -1.7408594,-0.534882 0.062761,-0.874997 0.6212519,-0.656297 0.503021,-0.347905 C 7.3063006,13.046538 7.0682794,13.629652 6.6487719,13.394339 6.2292642,13.159025 6.0814635,13.048801 5.9731641,12.89668"
     id="path1323" />
  <path
     style="fill:none;stroke:#000000;stroke-width:0.355587;stroke-linecap:butt;stroke-linejoin:miter;stroke-miterlimit:4;stroke-dasharray:none;stroke-opacity:1"
     d="m 19.516904,18.120552 c 0.04313,0.05049 2.187525,-0.147604 2.93044,0.564907 0.742916,0.71251 0.405338,-0.518962 0.405338,-0.518962 0,0 0.53754,0.22379 0.930766,0.116629 0.393226,-0.107157 -2.724866,-2.125145 -2.724866,-2.125145"
     id="path1325" />
  <path
     style="fill:none;stroke:#000000;stroke-width:0.355587;stroke-linecap:butt;stroke-linejoin:miter;stroke-miterlimit:4;stroke-dasharray:none;stroke-opacity:1"
     d="m 22.849897,17.384923 c 0.571354,0.350134 0.311488,-0.280422 0.311488,-0.280422 0,0 0.342621,0.14271 0.735847,0.03555 0.393226,-0.107157 -2.388809,-1.873809 -2.388809,-1.873809"
     id="path1325-1" />
  <path
     style="fill:none;stroke:#000000;stroke-width:0.355587;stroke-linecap:butt;stroke-linejoin:miter;stroke-miterlimit:4;stroke-dasharray:none;stroke-opacity:1"
     d="m 13.713792,20.257086 c -0.0063,0.0661 -1.550312,2.531825 -1.749735,3.541689 -0.199424,1.009864 -0.629785,-0.192331 -0.629785,-0.192331 0,0 -0.311743,0.49178 -0.695256,0.629718 -0.383512,0.137941 0.685895,-4.701367 0.685895,-4.701367"
     id="path1325-8" />
  <path
     style="fill:none;stroke:#000000;stroke-width:0.355587;stroke-linecap:butt;stroke-linejoin:miter;stroke-miterlimit:4;stroke-dasharray:none;stroke-opacity:1"
     d="m 14.469565,20.18396 c 0.02264,0.06243 -0.642686,1.865274 -0.389534,2.863027 0.25315,0.997753 -0.651392,0.09648 -0.651392,0.09648 0,0 -0.07059,0.577969 -0.357827,0.867114 -0.287235,0.289146 -0.461566,-1.830032 -0.461566,-1.830032"
     id="path1325-8-7" />
  <path
     style="fill:none;stroke:#000000;stroke-width:0.328912;stroke-linecap:butt;stroke-linejoin:miter;stroke-miterlimit:4;stroke-dasharray:none;stroke-opacity:1"
     d="M 19.997521,8.2932447 19.933,6.8567873 c 0,0 -0.390422,0.5191613 -1.251292,0.8550006 C 17.82084,8.0476286 18.180572,9.208541 18.180572,9.208541"
     id="path1382" />
  <path
     style="fill:none;stroke:#000000;stroke-width:0.328912;stroke-linecap:butt;stroke-linejoin:miter;stroke-miterlimit:4;stroke-dasharray:none;stroke-opacity:1"
     d="m 21.309823,8.176546 0.113148,-1.789447 c 0,0 -0.562788,0.6040973 -1.423658,0.9399366"
     id="path1382-9" />
  <path
     style="fill:none;fill-opacity:1;stroke:#000000;stroke-width:0.355587;stroke-miterlimit:4;stroke-dasharray:none;stroke-opacity:1"
     id="path1221-9"
     d="m 41.356253,71.366299 a 6.7350545,5.3482456 0 0 1 -6.92543,2.831152 6.7350545,5.3482456 0 0 1 -5.657883,-4.251251 6.7350545,5.3482456 0 0 1 3.177391,-5.647374 6.7350545,5.3482456 0 0 1 7.762732,0.510175"
     transform="rotate(-18.022735)" />
  <ellipse
     style="fill:none;fill-opacity:1;stroke:#000000;stroke-width:0.355587;stroke-miterlimit:4;stroke-dasharray:none;stroke-opacity:1"
     id="path1239-7"
     cx="44.848373"
     cy="68.534569"
     rx="0.14981158"
     ry="0.4884133"
     transform="rotate(-18.022735)" />
  <ellipse
     style="fill:none;fill-opacity:1;stroke:#000000;stroke-width:0.355587;stroke-miterlimit:4;stroke-dasharray:none;stroke-opacity:1"
     id="path1239-2-8"
     cx="45.753265"
     cy="68.536385"
     rx="0.14981158"
     ry="0.4884133"
     transform="rotate(-18.022735)" />
  <ellipse
     style="fill:none;fill-opacity:1;stroke:#000000;stroke-width:0.355587;stroke-miterlimit:4;stroke-dasharray:none;stroke-opacity:1"
     id="path1271-4"
     cx="45.098808"
     cy="68.535301"
     rx="1.2742907"
     ry="1.0870594"
     transform="rotate(-18.022735)" />
  <path
     style="fill:none;stroke:#000000;stroke-width:0.284469;stroke-linecap:butt;stroke-linejoin:miter;stroke-miterlimit:4;stroke-dasharray:none;stroke-opacity:1"
     d="m 61.38998,52.313326 c 0,0 0.192326,1.013688 1.600145,0.760013"
     id="path1273-5" />
  <ellipse
     style="fill:#000000;fill-opacity:1;stroke:#000000;stroke-width:0.284469;stroke-miterlimit:4;stroke-dasharray:none;stroke-opacity:1"
     id="path1275-0"
     cx="42.991695"
     cy="66.347435"
     rx="0.31467995"
     ry="0.32670364"
     transform="rotate(-18.022735)" />
  <path
     style="fill:none;stroke:#000000;stroke-width:0.284469;stroke-linecap:butt;stroke-linejoin:miter;stroke-miterlimit:4;stroke-dasharray:none;stroke-opacity:1"
     d="m 60.974852,52.375415 c 0,0 0.465958,0.168954 0.862856,-0.252208"
     id="path1285-3" />
  <path
     style="fill:none;stroke:#000000;stroke-width:0.355587;stroke-linecap:butt;stroke-linejoin:miter;stroke-miterlimit:4;stroke-dasharray:none;stroke-opacity:1"
     d="m 60.642719,49.588232 c 0,0 0.06668,-0.681399 0.893133,-0.570762"
     id="path1307-1" />
  <path
     style="fill:none;stroke:#000000;stroke-width:0.284469;stroke-linecap:round;stroke-linejoin:miter;stroke-miterlimit:4;stroke-dasharray:none;stroke-opacity:1"
     d="m 48.6425,53.483855 c 0,0 -1.800524,0.356147 -1.74555,-0.519374 0.05497,-0.87552 0.615388,-0.661797 0.499906,-0.352366 -0.115483,0.309431 -0.348306,0.89464 -0.769891,0.663068 -0.421585,-0.231572 -0.57036,-0.340477 -0.680008,-0.491628"
     id="path1323-0" />
  <path
     style="fill:none;stroke:#000000;stroke-width:0.355587;stroke-linecap:butt;stroke-linejoin:miter;stroke-miterlimit:4;stroke-dasharray:none;stroke-opacity:1"
     d="m 59.536635,57.886728 c 0.04358,0.05011 0.300206,2.418873 0.282123,3.43807 -0.01771,0.998444 0.732859,-0.876405 0.732859,-0.876405 0,0 0.175619,0.85251 0.546935,0.684487 0.445136,-0.201426 -0.03776,-5.222361 -0.03776,-5.222361"
     id="path1325-6" />
  <path
     style="fill:none;stroke:#000000;stroke-width:0.355587;stroke-linecap:butt;stroke-linejoin:miter;stroke-miterlimit:4;stroke-dasharray:none;stroke-opacity:1"
     d="m 53.75276,60.074805 c -0.0058,0.06616 0.05219,0.573142 1.102207,1.167779 0.89571,0.507249 -0.97541,0.173451 -0.97541,0.173451 0,0 0.646611,0.757587 0.264344,0.89893 -0.38227,0.141348 -2.739404,-2.772568 -2.739404,-2.772568"
     id="path1325-8-2" />
  <path
     style="fill:none;stroke:#000000;stroke-width:0.328912;stroke-linecap:butt;stroke-linejoin:miter;stroke-miterlimit:4;stroke-dasharray:none;stroke-opacity:1"
     d="m 59.929805,48.055534 -0.0773,-1.435826 c 0,0 -0.385788,0.522613 -1.243636,0.866098 -0.857846,0.343486 -0.4878,1.501152 -0.4878,1.501152"
     id="path1382-6" />
  <path
     style="fill:none;stroke:#000000;stroke-width:0.328912;stroke-linecap:butt;stroke-linejoin:miter;stroke-miterlimit:4;stroke-dasharray:none;stroke-opacity:1"
     d="m 61.241016,47.927165 0.09722,-1.790383 c 0,0 -0.557392,0.60908 -1.41524,0.952565"
     id="path1382-9-1" />
  <path
     style="fill:none;stroke:#000000;stroke-width:0.355587;stroke-linecap:butt;stroke-linejoin:miter;stroke-miterlimit:4;stroke-dasharray:none;stroke-opacity:1"
     d="m 61.277983,60.188482 c 0,0 -0.07088,0.223643 0.300437,0.05562 0.445136,-0.201426 -0.03776,-5.222362 -0.03776,-5.222362"
     id="path1325-6-5" />
  <path
     style="fill:none;stroke:#000000;stroke-width:0.355587;stroke-linecap:butt;stroke-linejoin:miter;stroke-miterlimit:4;stroke-dasharray:none;stroke-opacity:1"
     d="m 52.700541,60.869266 c -0.0058,0.06616 0.05539,0.0507 0.691175,0.96722 0.644517,0.929096 -0.957211,-0.136963 -0.957211,-0.136963 0,0 0.648142,1.060625 0.246145,1.209344 -0.382245,0.141413 -2.170145,-3.78446 -2.170145,-3.78446"
     id="path1325-8-2-5" />
  <path
     id="path1235-5"
     style="fill:none;fill-opacity:1;stroke:#000000;stroke-width:0.328819;stroke-miterlimit:4;stroke-dasharray:none;stroke-opacity:1"
     d="m 64.08257,52.26138 c -0.377219,1.742592 -1.969195,2.937989 -3.739587,2.808012 -0.442599,-0.03249 -0.86286,-0.145367 -1.246412,-0.324212 -0.383552,-0.178846 -0.730395,-0.423667 -1.026157,-0.720057 -0.295762,-0.296391 -0.540442,-0.644354 -0.719667,-1.029485 m 0.318764,-3.610421 c 0.495041,-0.672196 1.266564,-1.220975 2.132087,-1.413917 1.731047,-0.385881 3.486713,0.564851 4.124095,2.233291" />
</svg>
